<svg xmlns="http://www.w3.org/2000/svg" width="138" height="47" viewBox="0 0 138 47" fill="none">
<path d="M3.96069 39.6508V41.7152H6.69801V43.0304H3.96069V45.1866H7.0782V46.5477H2.3335V38.3203H7.0782V39.6813L3.96069 39.6508Z" fill="#0080DF"/>
<path d="M14.9835 38.8077C15.6374 39.1288 16.1393 39.6488 16.5194 40.2605C16.8996 40.8722 17.0365 41.6215 17.0365 42.4167C17.0365 43.2119 16.854 43.9613 16.5194 44.5729C16.1545 45.1846 15.683 45.6434 14.9835 45.9799C14.3296 46.301 13.5844 46.4998 12.7024 46.4998H9.81299V38.2725H12.7024C13.5388 38.3489 14.3296 38.4866 14.9835 38.8077ZM14.6489 44.42C15.1204 43.946 15.3485 43.3037 15.3485 42.4626C15.3485 41.6215 15.1204 40.9181 14.6489 40.4593C14.1775 39.9852 13.5388 39.7558 12.6568 39.7558H11.501V45.1846H12.6568C13.4932 45.1694 14.1927 44.8941 14.6489 44.42Z" fill="#0080DF"/>
<path d="M21.1627 38.3516V43.444C21.1627 44.0098 21.2996 44.4227 21.5885 44.7132C21.8622 44.9885 22.288 45.1873 22.8051 45.1873C23.3221 45.1873 23.7327 45.0497 24.0217 44.7132C24.2954 44.438 24.4475 44.0098 24.4475 43.444V38.3516H26.0747V43.444C26.0747 44.1474 25.9378 44.7591 25.6033 45.2179C25.3295 45.6919 24.9037 46.059 24.3867 46.2883C23.8696 46.5177 23.3221 46.6554 22.7139 46.6554C22.1056 46.6554 21.5581 46.5636 21.041 46.2883C20.524 46.059 20.159 45.6766 19.8853 45.2179C19.6115 44.7591 19.4595 44.1474 19.4595 43.444V38.3516H21.1627Z" fill="#0080DF"/>
<path d="M29.1584 40.2627C29.5234 39.6052 29.9948 39.1464 30.6487 38.7641C31.3026 38.3818 32.0022 38.2441 32.7929 38.2441C33.7206 38.2441 34.5114 38.4735 35.2109 38.9476C35.9104 39.4217 36.3667 40.0639 36.6556 40.905H34.7547C34.5722 40.538 34.2833 40.2016 33.9639 40.0181C33.6446 39.8346 33.2187 39.7428 32.8081 39.7428C32.3367 39.7428 31.9261 39.8346 31.5459 40.0639C31.1657 40.2933 30.892 40.6298 30.6639 40.9968C30.4814 41.425 30.3446 41.8837 30.3446 42.4496C30.3446 43.0154 30.4358 43.4742 30.6639 43.8565C30.8464 44.2847 31.181 44.6058 31.5459 44.7893C31.9109 45.0187 32.3367 45.1105 32.8081 45.1105C33.2796 45.1105 33.6446 45.0187 33.9639 44.8352C34.2833 44.6517 34.5722 44.3152 34.7547 43.9482H36.6556C36.3819 44.7893 35.9104 45.4469 35.2109 45.9057C34.5114 46.3797 33.7206 46.6091 32.7929 46.6091C32.0022 46.6091 31.3026 46.4256 30.6487 46.0892C29.9948 45.768 29.5386 45.2481 29.1584 44.5905C28.7782 43.9329 28.5957 43.2295 28.5957 42.4343C28.6109 41.6238 28.7934 40.8744 29.1584 40.2627Z" fill="#0080DF"/>
<path d="M44.3253 44.9885H41.0709L40.5539 46.5789H38.8354L41.7705 38.3516H43.6714L46.6064 46.5789H44.888L44.3253 44.9885ZM43.8691 43.6733L42.6525 40.2172L41.4359 43.6733H43.8691Z" fill="#0080DF"/>
<path d="M54.5513 38.3516V39.7126H52.3615V46.5942H50.7343V39.7126H48.5444V38.3516H54.5513Z" fill="#0080DF"/>
<path d="M58.6501 38.3516V46.5789H57.0229V38.3516H58.6501Z" fill="#0080DF"/>
<path d="M63.2471 46.1041C62.5931 45.7371 62.0913 45.2631 61.7111 44.6055C61.3461 43.9479 61.1484 43.2444 61.1484 42.4492C61.1484 41.654 61.3309 40.9047 61.7111 40.293C62.0761 39.6354 62.5931 39.1767 63.2471 38.7943C63.901 38.4273 64.6005 38.2285 65.3457 38.2285C66.1365 38.2285 66.836 38.412 67.4899 38.7943C68.1438 39.1614 68.6457 39.6354 69.0259 40.293C69.3908 40.9506 69.5885 41.654 69.5885 42.4492C69.5885 43.2444 69.406 43.9938 69.0259 44.6055C68.6609 45.2631 68.1438 45.7218 67.4899 46.1041C66.836 46.4712 66.1365 46.67 65.3913 46.67C64.5853 46.6241 63.8858 46.4406 63.2471 46.1041ZM66.6383 44.8043C67.0033 44.5749 67.2922 44.2385 67.5203 43.8256C67.7484 43.3974 67.8397 42.9386 67.8397 42.3728C67.8397 41.807 67.7484 41.3482 67.5203 40.92C67.2922 40.4918 67.0033 40.1707 66.6383 39.9871C66.2733 39.8036 65.8019 39.666 65.3305 39.666C64.859 39.666 64.4028 39.7578 64.0226 39.9871C63.6577 40.2165 63.3687 40.5071 63.1406 40.92C62.9125 41.3482 62.8212 41.807 62.8212 42.3728C62.8212 42.9386 62.9125 43.3974 63.1406 43.8256C63.3687 44.2538 63.6577 44.5749 64.0226 44.8043C64.3876 45.0337 64.859 45.1254 65.3305 45.1254C65.8475 45.1713 66.2581 45.0337 66.6383 44.8043Z" fill="#0080DF"/>
<path d="M79.0466 46.532H77.4194L73.6936 40.8738V46.532H72.0664V38.3047H73.7088L77.4346 43.9629V38.3047H79.0618V46.532H79.0466Z" fill="#0080DF"/>
<path d="M6.14378 33.7158C4.24286 32.9206 2.75254 31.7584 1.67281 30.2138C0.608295 28.6693 0 26.8954 0 24.8309H7.25392C7.34516 26.2378 7.86222 27.3083 8.74424 28.1035C9.62627 28.8987 10.8429 29.3269 12.3788 29.3269C13.9604 29.3269 15.2226 28.9599 16.1046 28.2105C16.9866 27.4612 17.4581 26.4366 17.4581 25.2132C17.4581 24.1886 17.1843 23.3934 16.5304 22.7358C15.9221 22.0783 15.1313 21.5736 14.2493 21.1913C13.3217 20.8243 12.0595 20.3961 10.4323 19.9679C8.2424 19.3103 6.47834 18.6986 5.07926 18.0563C3.68019 17.4141 2.52443 16.4659 1.55115 15.1966C0.577881 13.9274 0.0608297 12.1993 0.0608297 10.0584C0.0608297 8.05506 0.577881 6.31172 1.55115 4.82836C2.57005 3.32969 3.96913 2.21334 5.73318 1.41813C7.54286 0.622925 9.59585 0.194736 11.9226 0.194736C15.4051 0.194736 18.2032 1.03582 20.3931 2.71799C22.583 4.40016 23.7843 6.78579 23.9668 9.82899H16.5304C16.4392 8.66676 15.9677 7.67275 15.0401 6.92342C14.1124 6.17409 12.8959 5.80707 11.4055 5.80707C10.0977 5.80707 9.03318 6.12821 8.2424 6.83167C7.45162 7.53512 7.02581 8.51384 7.02581 9.78311C7.02581 10.6701 7.29954 11.4194 7.90784 12.0311C8.51613 12.6428 9.26129 13.1016 10.1433 13.4839C11.0253 13.8509 12.2876 14.2791 13.8691 14.7532C16.059 15.4107 17.8687 16.0683 19.2221 16.7106C20.6212 17.3682 21.777 18.3469 22.7959 19.6162C23.8148 20.9313 24.2862 22.6135 24.2862 24.7086C24.2862 26.5284 23.8148 28.2105 22.8871 29.7551C21.9595 31.2996 20.5604 32.5536 18.7963 33.4558C16.9866 34.3887 14.8424 34.8627 12.3788 34.8627C10.1433 34.9239 7.99908 34.511 6.14378 33.7158ZM65.0572 15.1966H60.7383V34.878H57.8032C55.9479 34.878 54.412 33.3335 54.412 31.4678V8.74322C54.412 5.70002 55.2484 3.45203 57.0125 2.01454C58.7309 0.561755 61.3314 -0.0958177 64.8291 0.0112295V5.30242C63.2931 5.25654 62.2742 5.53181 61.6659 6.05175C61.0576 6.5717 60.7839 7.55041 60.7839 8.95732V9.98191H65.1028L65.0572 15.1966ZM73.4212 15.1966V27.2165C73.4212 28.0576 73.6037 28.6693 74.0295 29.0363C74.4553 29.4033 75.094 29.6021 76.0825 29.6021H78.9719V34.8933H75.0636C69.8019 34.8933 67.1558 32.3242 67.1558 27.1706V8.08565C67.1558 6.54111 68.3724 5.33301 69.8931 5.33301H73.4212V10.0584H77.9834L79.9756 15.1966H73.4212ZM106.436 10.0584L92.1263 44.3288C91.518 45.7357 90.1798 46.6685 88.6438 46.6685H84.5074L89.8604 34.2816L79.9604 10.0584H83.9599C85.7696 10.0584 87.3512 11.1747 88.0051 12.8569L93.3581 27.4L99.0304 12.2452C99.5019 10.93 100.749 10.0431 102.148 10.0431H106.436V10.0584ZM39.2502 9.11025C32.1788 9.11025 26.4608 14.8602 26.4608 21.9712C26.4608 29.0822 32.1788 34.8322 39.2502 34.8322C46.3217 34.8322 52.0396 29.0822 52.0396 21.9712C52.0396 14.8602 46.3217 9.11025 39.2502 9.11025ZM39.2502 28.5164C35.6765 28.5164 32.7871 25.6108 32.7871 22.0171C32.7871 18.4234 35.6765 15.5178 39.2502 15.5178C42.824 15.5178 45.7134 18.4234 45.7134 22.0171C45.7134 25.6108 42.824 28.5164 39.2502 28.5164Z" fill="url(#paint0_linear_8619_194)"/>
<path d="M134.328 15.335L133.172 15.7632V23.0118H134.328V15.335Z" fill="url(#paint1_linear_8619_194)"/>
<path d="M111.966 39.8778C121.364 39.8778 128.937 36.177 128.937 34.5407L128.892 34.3572H128.937V20.4258L112.422 26.0381C112.285 26.084 112.103 26.1299 111.951 26.1299C111.814 26.1299 111.631 26.084 111.479 26.0381L103.298 23.2396L97.6709 36.8499C100.712 38.3944 105.974 39.8778 111.966 39.8778Z" fill="url(#paint2_linear_8619_194)"/>
<path d="M137.818 14.126L111.22 4.91992L104.286 20.87L111.22 23.2097C111.692 23.3473 112.193 23.3473 112.711 23.2097L128.937 17.6891L136.328 15.1659L137.818 14.6459C138.061 14.5389 138.061 14.1719 137.818 14.126Z" fill="url(#paint3_linear_8619_194)"/>
<path d="M134.753 22.6289H132.807C132.579 22.8583 132.381 23.2406 132.381 23.6076V28.0424C132.381 28.7918 132.989 29.4493 133.78 29.4493C134.525 29.4493 135.179 28.8376 135.179 28.0424V23.6076C135.118 23.1947 134.981 22.8583 134.753 22.6289Z" fill="url(#paint4_linear_8619_194)"/>
<defs>
<linearGradient id="paint0_linear_8619_194" x1="0" y1="23.3343" x2="106.436" y2="23.3343" gradientUnits="userSpaceOnUse">
<stop stop-color="#2860D7"/>
<stop offset="1" stop-color="#52ABF7"/>
</linearGradient>
<linearGradient id="paint1_linear_8619_194" x1="133.187" y1="19.1734" x2="134.348" y2="19.1734" gradientUnits="userSpaceOnUse">
<stop stop-color="#FFAB00"/>
<stop offset="1" stop-color="#FFC900"/>
</linearGradient>
<linearGradient id="paint2_linear_8619_194" x1="97.6709" y1="30.1518" x2="128.937" y2="30.1518" gradientUnits="userSpaceOnUse">
<stop stop-color="#FFAB00"/>
<stop offset="1" stop-color="#FFC900"/>
</linearGradient>
<linearGradient id="paint3_linear_8619_194" x1="104.286" y1="14.1164" x2="138" y2="14.1164" gradientUnits="userSpaceOnUse">
<stop stop-color="#FFAB00"/>
<stop offset="1" stop-color="#FFC900"/>
</linearGradient>
<linearGradient id="paint4_linear_8619_194" x1="132.396" y1="26.0391" x2="135.137" y2="26.0391" gradientUnits="userSpaceOnUse">
<stop stop-color="#FFAB00"/>
<stop offset="1" stop-color="#FFC900"/>
</linearGradient>
</defs>
</svg>