<svg xmlns="http://www.w3.org/2000/svg" width="42" height="35" viewBox="0 0 42 35" fill="none"><path d="M37.4917 10.415L36.3359 10.8432V18.0919H37.4917V10.415Z" fill="url(#paint0_linear_5837_546)"/><path d="M15.1309 34.9584C24.529 34.9584 32.1023 31.2576 32.1023 29.6213L32.0567 29.4378H32.1023V15.5063L15.5871 21.1187C15.4502 21.1646 15.2677 21.2104 15.1157 21.2104C14.9788 21.2104 14.7963 21.1646 14.6442 21.1187L6.46267 18.3202L0.835938 31.9304C3.87741 33.475 9.13917 34.9584 15.1309 34.9584Z" fill="url(#paint1_linear_5837_546)"/><path d="M40.9815 9.20607L14.3838 0L7.44922 15.95L14.3838 18.2898C14.8552 18.4274 15.3571 18.4274 15.8741 18.2898L32.1004 12.7692L39.4912 10.246L40.9815 9.72601C41.2248 9.61896 41.2248 9.25194 40.9815 9.20607Z" fill="url(#paint2_linear_5837_546)"/><path d="M37.9192 17.7095H35.9727C35.7446 17.9389 35.5469 18.3212 35.5469 18.6882V23.123C35.5469 23.8723 36.1552 24.5299 36.9459 24.5299C37.6911 24.5299 38.345 23.9182 38.345 23.123V18.6882C38.2842 18.2753 38.1473 17.9389 37.9192 17.7095Z" fill="url(#paint3_linear_5837_546)"/><defs><linearGradient id="paint0_linear_5837_546" x1="36.3508" y1="14.2534" x2="37.5114" y2="14.2534" gradientUnits="userSpaceOnUse"><stop stop-color="#FFAB00"/><stop offset="1" stop-color="#FFC900"/></linearGradient><linearGradient id="paint1_linear_5837_546" x1="0.835938" y1="25.2324" x2="32.1023" y2="25.2324" gradientUnits="userSpaceOnUse"><stop stop-color="#FFAB00"/><stop offset="1" stop-color="#FFC900"/></linearGradient><linearGradient id="paint2_linear_5837_546" x1="7.44922" y1="9.19651" x2="41.164" y2="9.19651" gradientUnits="userSpaceOnUse"><stop stop-color="#FFAB00"/><stop offset="1" stop-color="#FFC900"/></linearGradient><linearGradient id="paint3_linear_5837_546" x1="35.5618" y1="21.1197" x2="38.3035" y2="21.1197" gradientUnits="userSpaceOnUse"><stop stop-color="#FFAB00"/><stop offset="1" stop-color="#FFC900"/></linearGradient></defs></svg>