<svg width="30" height="28" viewBox="0 0 30 28" fill="none" xmlns="http://www.w3.org/2000/svg">
<path d="M15.0003 0.366699C7.22681 0.366699 0.930664 6.66636 0.930664 14.4363C0.930664 20.6539 4.9616 25.9265 10.5508 27.7848C11.2542 27.9173 11.5122 27.4823 11.5122 27.1083C11.5122 26.7742 11.5004 25.8889 11.4946 24.7165C7.58089 25.5653 6.75548 22.8288 6.75548 22.8288C6.11531 21.2049 5.19023 20.7711 5.19023 20.7711C3.91576 19.8988 5.28872 19.9164 5.28872 19.9164C6.70154 20.0149 7.44372 21.3656 7.44372 21.3656C8.69825 23.5171 10.7372 22.8956 11.5415 22.5357C11.6681 21.6259 12.0304 21.0056 12.4326 20.6539C9.30794 20.3021 6.02386 19.0922 6.02386 13.7012C6.02386 12.1652 6.56906 10.9107 7.47185 9.92582C7.31357 9.57056 6.83872 8.14015 7.59496 6.20207C7.59496 6.20207 8.77329 5.82453 11.4641 7.6442C12.5897 7.33115 13.7856 7.17638 14.9815 7.16935C16.1774 7.17638 17.3733 7.33115 18.4989 7.6442C21.1721 5.82453 22.3505 6.20207 22.3505 6.20207C23.1067 8.14015 22.6318 9.57056 22.4912 9.92582C23.3881 10.9107 23.9333 12.1652 23.9333 13.7012C23.9333 19.1062 20.6445 20.2963 17.514 20.6422C18.0065 21.0642 18.4637 21.9272 18.4637 23.245C18.4637 25.128 18.4461 26.6405 18.4461 27.0978C18.4461 27.4671 18.6924 27.9068 19.4134 27.7661C25.0424 25.9206 29.0699 20.6445 29.0699 14.4363C29.0699 6.66636 22.7702 0.366699 15.0003 0.366699" fill="#333333"/>
</svg>
