<svg width="29" height="29" viewBox="0 0 29 29" fill="none" xmlns="http://www.w3.org/2000/svg">
<g clip-path="url(#clip0_8722_979)">
<path d="M28.2961 14.4121C28.2961 13.4557 28.2186 12.4941 28.0531 11.5532H14.7822V16.9712H22.3818C22.0665 18.7186 21.0532 20.2643 19.5695 21.2466V24.762H24.1034C26.7658 22.3116 28.2961 18.6927 28.2961 14.4121Z" fill="#FF4141"/>
<path d="M14.7819 28.1587C18.5766 28.1587 21.7767 26.9128 24.1082 24.7621L19.5743 21.2467C18.3129 22.1049 16.6844 22.5908 14.7871 22.5908C11.1165 22.5908 8.00433 20.1145 6.88765 16.7852H2.20898V20.4092C4.59743 25.1602 9.46221 28.1587 14.7819 28.1587V28.1587Z" fill="#FF4141"/>
<path d="M6.88206 16.7849C6.29271 15.0375 6.29271 13.1453 6.88206 11.398V7.77393H2.20857C0.213029 11.7495 0.213029 16.4333 2.20857 20.4089L6.88206 16.7849V16.7849Z" fill="#FF4141"/>
<path d="M14.7819 5.58737C16.7878 5.55635 18.7265 6.31114 20.1792 7.69665L24.1961 3.67972C21.6526 1.29127 18.2767 -0.0218555 14.7819 0.0195028C9.46221 0.0195028 4.59743 3.01798 2.20898 7.7742L6.88248 11.3982C7.99399 8.0637 11.1114 5.58737 14.7819 5.58737V5.58737Z" fill="#FF4141"/>
</g>
<defs>
<clipPath id="clip0_8722_979">
<rect width="28.1392" height="28.1392" fill="white" transform="translate(0.430664 0.0185547)"/>
</clipPath>
</defs>
</svg>
